<?xml version="1.0" encoding="UTF-8" standalone="no"?>
<svg
   xmlns:dc="http://purl.org/dc/elements/1.1/"
   xmlns:cc="http://web.resource.org/cc/"
   xmlns:rdf="http://www.w3.org/1999/02/22-rdf-syntax-ns#"
   xmlns:svg="http://www.w3.org/2000/svg"
   xmlns="http://www.w3.org/2000/svg"
   xmlns:sodipodi="http://inkscape.sourceforge.net/DTD/sodipodi-0.dtd"
   xmlns:inkscape="http://www.inkscape.org/namespaces/inkscape"
   sodipodi:docbase="/home/ddecotig/tmp/logos"
   sodipodi:docname="logo-CNRS-avec-texte.svgz"
   inkscape:version="0.41"
   sodipodi:version="0.32"
   id="svg1478"
   >
  <metadata
     id="metadata1585">
    <rdf:RDF
       id="RDF1587">
      <cc:Work
         id="Work1589"
         rdf:about="">
        <dc:format
           id="format1591">image/svg+xml</dc:format>
        <dc:type
           rdf:resource="http://purl.org/dc/dcmitype/StillImage"
           id="type1593" />
      </cc:Work>
    </rdf:RDF>
  </metadata>
  <sodipodi:namedview
     inkscape:current-layer="svg1478"
     inkscape:window-y="422"
     inkscape:window-x="0"
     inkscape:zoom="0.43415836"
     inkscape:cx="305.25953"
     inkscape:cy="417.84947"
     inkscape:window-height="543"
     inkscape:window-width="640"
     inkscape:pageshadow="2"
     inkscape:pageopacity="0.0"
     borderopacity="1.0"
     bordercolor="#666666"
     pagecolor="#ffffff"
     id="base" />
  <defs
     id="defs1480">
    <marker
       orient="auto"
       markerHeight="3"
       markerWidth="4"
       markerUnits="strokeWidth"
       refY="5"
       refX="0"
       viewBox="0 0 10 10"
       id="ArrowEnd">
      <path
         id="path1483"
         d="M 0 0 L 10 5 L 0 10 z" />
    </marker>
    <marker
       orient="auto"
       markerHeight="3"
       markerWidth="4"
       markerUnits="strokeWidth"
       refY="5"
       refX="10"
       viewBox="0 0 10 10"
       id="ArrowStart">
      <path
         id="path1486"
         d="M 10 0 L 0 5 L 10 10 z" />
    </marker>
  </defs>
  <g
     id="logo_cnrs">
    <path
       id="path1490"
       d="M 0.00769971 174.781L 0.00769971 174.781L 0.00769971 174.781L 0.00769971 174.781"
       style="stroke:none; fill:#000000" />
    <path
       id="path1492"
       d="M 0.00769971 174.781L 0.00769971 174.781L 0.00769971 174.781L 0.00769971 174.781"
       style="stroke:none; fill:#000000" />
    <path
       id="path1494"
       d="M 148.537 49.209L 161.677 0L 170.668 0.167999L 157.528 49.209L 148.537 49.209"
       style="stroke:none; fill:#cccccc" />
    <path
       id="path1496"
       d="M 148.779 142.541L 166.2 76.9255L 175.191 76.9236L 157.77 142.623L 148.779 142.541"
       style="stroke:none; fill:#cccccc" />
    <path
       id="path1498"
       d="M 122.905 54.619L 131.103 24.5L 140.094 24.498L 131.895 54.617L 122.905 54.619"
       style="stroke:none; fill:#cccccc" />
    <path
       id="path1500"
       d="M 115.625 174.781L 127.769 129.75L 136.76 129.75L 124.616 174.779L 115.625 174.781"
       style="stroke:none; fill:#cccccc" />
    <path
       id="path1502"
       d="M 97.5426 153.426L 104.096 129.572L 113.087 129.57L 106.534 153.426L 97.5426 153.426"
       style="stroke:none; fill:#cccccc" />
    <path
       id="path1504"
       d="M 130.21 97.279C 122.414 94.908 116.846 87.2107 117.048 78.49C 117.289 68.039 125.778 59.308 135.994 59.545L 149.047 59.574L 148.967 55.676L 162.868 65.295L 148.769 76.3787L 148.745 72.621L 137.19 72.713C 133.911 72.636 130.811 75.4509 130.735 78.7302C 130.666 81.7048 134.202 84.115 136.838 85.3005C 143.836 88.4451 149.425 97.4861 149.236 105.638C 148.994 116.09 140.115 125.486 129.899 125.25L 106.406 125.221C 105 125.187 103.176 123.799 102.785 122.525L 87.8671 99.9998L 76.9952 100.002L 74.3085 112.31L 77.9103 112.242L 61.9855 126.127L 52.9935 112.037L 57.4884 111.951L 68.0922 69.705L 54.7482 50.265C 51.9003 63.437 39.7814 73.343 26.6044 73.039C 11.5455 72.689 -0.362417 59.408 0.00843214 43.373C 0.379282 27.336 14.1083 13.748 29.1674 14.095L 32.3173 14.111L 32.4022 9.22801L 45.9611 21.029L 32.5922 32.982L 32.598 27.922L 26.8971 28.156C 19.5243 28.56 13.2523 35.617 13.0663 43.674C 12.8715 52.105 19.0751 59.09 26.9223 59.271C 33.7101 59.427 39.504 54.443 41.0712 47.636L 49.7411 26.217L 57.5399 26.357L 74.3717 51.092L 80.6456 26.332L 75.5538 26.082L 90.8617 12.763L 101.647 26.685L 95.9418 26.683L 85.4149 66.65L 93.7728 66.836C 102.557 67.037 109.514 74.324 109.311 83.1072C 109.193 88.2146 105.77 95.0583 101.962 97.8826L 110.361 110.703L 127.907 110.732C 131.655 110.818 134.763 107.851 134.85 104.103C 134.921 101.037 132.979 98.1814 130.208 97.2751M 92.1696 86.074C 93.6915 86.1072 94.9555 84.904 94.9904 83.3806C 95.0253 81.8591 93.8195 80.5955 92.2975 80.5603L 81.9506 80.49L 80.7716 86.074L 92.1705 86.074"
       style="stroke:none; fill:#0b73e6" />
    <path
       id="path1506"
       d="M 195.608 63.281L 195.428 58.59L 195.008 58.59C 194.888 59.047 194.568 59.275 194.168 59.275C 193.988 59.275 193.688 59.224 193.388 59.119C 192.408 58.787 191.408 58.59 190.468 58.59C 188.829 58.59 187.169 59.244 185.929 60.408C 184.529 61.697 183.809 63.633 183.809 65.92C 183.809 67.853 184.394 69.642 185.389 70.828C 186.589 72.181 188.428 72.97 190.408 72.97C 192.668 72.97 194.648 72.013 195.868 70.328L 195.508 69.955C 194.029 71.431 192.709 72.07 191.049 72.07C 189.789 72.07 188.669 71.65 187.809 70.849C 186.709 69.83 186.109 67.959 186.109 65.648C 186.109 61.885 187.96 59.388 190.849 59.388C 191.988 59.388 193.029 59.845 193.829 60.719C 194.468 61.373 194.768 61.947 195.148 63.279"
       style="stroke:none; fill:#333333" />
    <path
       id="path1508"
       d="M 208.448 69.166L 207.888 69.166C 206.888 71.412 206.028 71.881 203.168 71.881L 202.628 71.881C 201.648 71.881 200.809 71.791 200.668 71.662C 200.569 71.599 200.508 71.371 200.508 71.017L 200.508 65.881L 203.608 65.881C 205.248 65.881 205.548 66.15 205.808 67.877L 206.268 67.877L 206.268 63.01L 205.808 63.01C 205.668 63.886 205.588 64.207 205.368 64.506C 205.109 64.859 204.549 64.98 203.609 64.98L 200.509 64.98L 200.509 60.408C 200.509 59.826 200.633 59.679 201.189 59.679L 203.889 59.679C 206.148 59.679 206.589 59.996 206.928 61.885L 207.428 61.885L 207.369 58.881L 196.749 58.881L 196.749 59.306C 198.229 59.431 198.508 59.722 198.508 61.177L 198.508 70.412C 198.508 71.869 198.226 72.179 196.749 72.285L 196.749 72.679L 207.549 72.679"
       style="stroke:none; fill:#333333" />
    <path
       id="path1510"
       d="M 221.008 72.91L 221.008 61.969C 221.008 60.72 221.187 59.951 221.528 59.681C 221.808 59.474 222.088 59.39 222.848 59.308L 222.848 58.883L 218.148 58.883L 218.148 59.308C 218.907 59.369 219.187 59.453 219.487 59.64C 219.887 59.931 220.107 60.679 220.107 61.97L 220.107 68.98L 212.367 58.883L 208.947 58.883L 208.947 59.281C 209.816 59.281 210.099 59.451 210.907 60.451L 210.907 69.625C 210.907 71.767 210.624 72.162 208.947 72.287L 208.947 72.681L 213.647 72.681L 213.647 72.281C 212.108 72.199 211.808 71.72 211.808 69.623L 211.808 61.47L 220.607 72.91"
       style="stroke:none; fill:#333333" />
    <path
       id="path1512"
       d="M 228.308 59.781L 228.308 70.185C 228.308 71.953 228.086 72.181 226.408 72.285L 226.408 72.679L 232.248 72.679L 232.248 72.281C 230.608 72.197 230.308 71.927 230.308 70.414L 230.308 59.781L 231.408 59.781C 233.687 59.781 234.128 60.156 234.588 62.447L 235.068 62.447L 234.948 58.881L 223.668 58.881L 223.548 62.447L 224.028 62.447C 224.508 60.179 224.968 59.781 227.208 59.781"
       style="stroke:none; fill:#333333" />
    <path
       id="path1514"
       d="M 248.588 72.287C 247.828 72.224 247.428 72.015 246.848 71.308L 242.728 66.047C 244.068 65.777 244.668 65.527 245.328 64.965C 245.968 64.424 246.308 63.551 246.308 62.572C 246.308 61.679 246.061 60.908 245.568 60.306C 244.808 59.453 243.148 58.883 241.268 58.883L 235.748 58.883L 235.748 59.308C 237.248 59.474 237.508 59.703 237.508 61.179L 237.508 70.185C 237.508 71.912 237.301 72.162 235.748 72.287L 235.748 72.681L 241.288 72.681L 241.288 72.287C 239.748 72.183 239.508 71.912 239.508 70.414L 239.508 66.316L 240.608 66.275L 245.368 72.679L 248.588 72.679L 248.588 72.287zM 239.508 60.429C 239.508 59.847 239.724 59.681 240.508 59.681C 243.008 59.681 244.208 60.576 244.208 62.531C 244.208 63.57 243.773 64.445 243.028 64.84C 242.113 65.381 241.417 65.506 239.508 65.547"
       style="stroke:none; fill:#333333" />
    <path
       id="path1516"
       d="M 260.648 69.166L 260.088 69.166C 259.088 71.412 258.228 71.881 255.368 71.881L 254.828 71.881C 253.848 71.881 253.008 71.791 252.868 71.662C 252.768 71.599 252.708 71.371 252.708 71.017L 252.708 65.881L 255.808 65.881C 257.448 65.881 257.748 66.15 258.008 67.877L 258.468 67.877L 258.468 63.01L 258.008 63.01C 257.868 63.886 257.788 64.207 257.568 64.506C 257.309 64.859 256.748 64.98 255.809 64.98L 252.709 64.98L 252.709 60.408C 252.709 59.826 252.832 59.679 253.389 59.679L 256.089 59.679C 258.348 59.679 258.789 59.996 259.128 61.885L 259.628 61.885L 259.569 58.881L 248.949 58.881L 248.949 59.306C 250.429 59.431 250.708 59.722 250.708 61.177L 250.708 70.412C 250.708 71.869 250.425 72.179 248.949 72.285L 248.949 72.679L 259.748 72.679"
       style="stroke:none; fill:#333333" />
    <path
       id="path1518"
       d="M 278.308 72.91L 278.308 61.969C 278.308 60.72 278.487 59.951 278.828 59.681C 279.107 59.474 279.387 59.39 280.147 59.308L 280.147 58.883L 275.447 58.883L 275.447 59.308C 276.207 59.369 276.487 59.453 276.787 59.64C 277.187 59.931 277.407 60.679 277.407 61.97L 277.407 68.98L 269.667 58.883L 266.247 58.883L 266.247 59.281C 267.116 59.281 267.399 59.451 268.207 60.451L 268.207 69.625C 268.207 71.767 267.924 72.162 266.247 72.287L 266.247 72.681L 270.947 72.681L 270.947 72.281C 269.407 72.199 269.107 71.72 269.107 69.623L 269.107 61.47L 277.907 72.91"
       style="stroke:none; fill:#333333" />
    <path
       id="path1520"
       d="M 294.528 72.287C 293.628 72.224 293.428 72.015 292.728 70.476L 287.748 58.631L 287.348 58.631L 283.188 68.875C 281.908 71.912 281.668 72.244 280.708 72.285L 280.708 72.679L 284.668 72.679L 284.668 72.279C 283.708 72.279 283.308 72.011 283.308 71.431C 283.308 71.181 283.368 70.89 283.468 70.621L 284.388 68.179L 289.628 68.179L 290.448 70.183C 290.688 70.746 290.828 71.287 290.828 71.578C 290.828 72.097 290.488 72.263 289.428 72.285L 289.428 72.679L 294.528 72.679L 294.528 72.287zM 284.728 67.281L 287.028 61.615L 289.348 67.281"
       style="stroke:none; fill:#333333" />
    <path
       id="path1522"
       d="M 299.908 59.781L 299.908 70.185C 299.908 71.953 299.686 72.181 298.008 72.285L 298.008 72.679L 303.848 72.679L 303.848 72.281C 302.208 72.197 301.908 71.927 301.908 70.414L 301.908 59.781L 303.008 59.781C 305.288 59.781 305.728 60.156 306.188 62.447L 306.668 62.447L 306.548 58.881L 295.268 58.881L 295.148 62.447L 295.628 62.447C 296.108 60.179 296.568 59.781 298.808 59.781"
       style="stroke:none; fill:#333333" />
    <path
       id="path1524"
       d="M 309.408 70.414C 309.408 71.974 309.148 72.224 307.468 72.285L 307.468 72.681L 313.408 72.681L 313.408 72.281C 311.768 72.219 311.408 71.927 311.408 70.414L 311.408 61.179C 311.408 59.662 311.694 59.39 313.408 59.306L 313.408 58.881L 307.468 58.881L 307.468 59.281C 309.168 59.386 309.408 59.619 309.408 61.179"
       style="stroke:none; fill:#333333" />
    <path
       id="path1526"
       d="M 320.928 58.59C 317.108 58.59 314.408 61.597 314.408 65.797C 314.408 67.75 315.041 69.644 316.108 70.849C 317.268 72.16 319.048 72.972 320.808 72.972C 324.748 72.972 327.508 70.06 327.508 65.879C 327.508 63.82 326.914 62.052 325.788 60.804C 324.528 59.369 322.848 58.59 320.928 58.59zM 320.928 59.39C 321.848 59.39 322.768 59.758 323.488 60.408C 324.568 61.427 325.208 63.383 325.208 65.859C 325.208 67.086 324.94 68.521 324.528 69.603C 324.348 70.123 324.008 70.642 323.548 71.121C 322.848 71.847 321.948 72.172 320.888 72.172C 319.968 72.172 319.068 71.816 318.368 71.203C 317.328 70.246 316.708 68.146 316.708 65.838C 316.708 63.717 317.252 61.699 318.068 60.72C 318.848 59.826 319.828 59.39 320.928 59.39"
       style="stroke:none; fill:#333333" />
    <path
       id="path1528"
       d="M 340.508 72.91L 340.508 61.969C 340.508 60.72 340.687 59.951 341.028 59.681C 341.308 59.474 341.588 59.39 342.348 59.308L 342.348 58.883L 337.648 58.883L 337.648 59.308C 338.407 59.369 338.687 59.453 338.987 59.64C 339.387 59.931 339.607 60.679 339.607 61.97L 339.607 68.98L 331.867 58.883L 328.447 58.883L 328.447 59.281C 329.316 59.281 329.599 59.451 330.407 60.451L 330.407 69.625C 330.407 71.767 330.124 72.162 328.447 72.287L 328.447 72.681L 333.147 72.681L 333.147 72.281C 331.608 72.199 331.308 71.72 331.308 69.623L 331.308 61.47L 340.107 72.91"
       style="stroke:none; fill:#333333" />
    <path
       id="path1530"
       d="M 356.728 72.287C 355.828 72.224 355.628 72.015 354.928 70.476L 349.948 58.631L 349.548 58.631L 345.388 68.875C 344.109 71.912 343.869 72.244 342.908 72.285L 342.908 72.679L 346.868 72.679L 346.868 72.279C 345.908 72.279 345.508 72.011 345.508 71.431C 345.508 71.181 345.568 70.89 345.668 70.621L 346.588 68.179L 351.828 68.179L 352.648 70.183C 352.888 70.746 353.028 71.287 353.028 71.578C 353.028 72.097 352.688 72.263 351.628 72.285L 351.628 72.679L 356.728 72.679L 356.728 72.287zM 346.928 67.281L 349.228 61.615L 351.548 67.281"
       style="stroke:none; fill:#333333" />
    <path
       id="path1532"
       d="M 368.468 69.062C 368.128 69.851 367.848 70.33 367.548 70.683C 366.848 71.494 365.748 71.881 364.088 71.881L 362.748 71.881C 361.288 71.881 361.008 71.754 361.008 71.017L 361.008 61.179C 361.008 59.703 361.291 59.412 362.888 59.306L 362.888 58.881L 357.248 58.881L 357.248 59.306C 358.728 59.431 359.008 59.722 359.008 61.179L 359.008 70.414C 359.008 71.869 358.725 72.181 357.248 72.285L 357.248 72.679L 368.008 72.679L 368.968 69.062"
       style="stroke:none; fill:#333333" />
    <path
       id="path1534"
       d="M 185.308 95.2146C 185.308 96.7126 185.065 96.9822 183.528 97.0857L 183.528 97.4802L 189.208 97.4802C 191.528 97.4802 193.628 96.7947 194.868 95.6306C 196.168 94.4021 196.908 92.5525 196.908 90.533C 196.908 88.6619 196.308 87.0408 195.208 85.8962C 193.848 84.4607 191.668 83.6814 188.928 83.6814L 183.528 83.6814L 183.528 84.1072C 185.108 84.2537 185.308 84.4412 185.308 85.9802L 185.308 95.2146zM 187.308 85.2927C 187.308 84.6482 187.532 84.4822 188.368 84.4822C 190.088 84.4822 191.387 84.8142 192.348 85.5212C 193.907 86.6443 194.808 88.4333 194.808 90.6794C 194.808 93.1326 193.961 94.8806 192.288 95.8572C 191.268 96.4607 190.108 96.6794 188.368 96.6794C 187.568 96.6794 187.308 96.4998 187.308 95.8572"
       style="stroke:none; fill:#333333" />
    <path
       id="path1536"
       d="M 209.548 93.9665L 208.988 93.9665C 207.988 96.2126 207.128 96.6814 204.268 96.6814L 203.728 96.6814C 202.748 96.6814 201.908 96.5896 201.768 96.4626C 201.668 96.4001 201.608 96.1716 201.608 95.8162L 201.608 90.6814L 204.708 90.6814C 206.348 90.6814 206.648 90.9509 206.908 92.6755L 207.368 92.6755L 207.368 87.8103L 206.908 87.8103C 206.768 88.6853 206.688 89.0076 206.468 89.3064C 206.208 89.6599 205.648 89.779 204.708 89.779L 201.609 89.779L 201.609 85.2087C 201.609 84.6267 201.732 84.4802 202.289 84.4802L 204.988 84.4802C 207.248 84.4802 207.688 84.7947 208.028 86.6853L 208.528 86.6853L 208.468 83.6794L 197.849 83.6794L 197.849 84.1052C 199.329 84.2302 199.608 84.5212 199.608 85.9783L 199.608 95.2126C 199.608 96.6677 199.325 96.9802 197.849 97.0837L 197.849 97.4783L 208.648 97.4783"
       style="stroke:none; fill:#333333" />
    <path
       id="path1538"
       d="M 226.268 93.8611C 225.928 94.6521 225.648 95.1306 225.348 95.4841C 224.648 96.2947 223.548 96.6814 221.888 96.6814L 220.548 96.6814C 219.088 96.6814 218.808 96.5544 218.808 95.8162L 218.808 85.9783C 218.808 84.5017 219.091 84.2107 220.688 84.1072L 220.688 83.6814L 215.048 83.6814L 215.048 84.1072C 216.528 84.2322 216.808 84.5232 216.808 85.9783L 216.808 95.2146C 216.808 96.6697 216.525 96.9822 215.048 97.0857L 215.048 97.4802L 225.808 97.4802L 226.768 93.8611"
       style="stroke:none; fill:#333333" />
    <path
       id="path1540"
       d="M 241.228 97.0857C 240.328 97.0251 240.128 96.8162 239.428 95.2771L 234.448 83.4314L 234.048 83.4314L 229.888 93.6736C 228.609 96.7107 228.369 97.0447 227.408 97.0857L 227.408 97.4802L 231.368 97.4802L 231.368 97.0798C 230.408 97.0798 230.008 96.8103 230.008 96.2322C 230.008 95.9822 230.068 95.6912 230.168 95.4216L 231.088 92.9802L 236.328 92.9802L 237.148 94.9841C 237.388 95.5466 237.528 96.0857 237.528 96.3787C 237.528 96.8982 237.188 97.0642 236.128 97.0857L 236.128 97.4802L 241.228 97.4802L 241.228 97.0857zM 231.428 92.0818L 233.728 86.4158L 236.048 92.0818"
       style="stroke:none; fill:#333333" />
    <path
       id="path1542"
       d="M 259.688 97.0857C 258.928 97.0251 258.528 96.8162 257.948 96.1091L 253.828 90.8455C 255.168 90.5759 255.768 90.3259 256.428 89.7654C 257.068 89.2244 257.408 88.3513 257.408 87.3728C 257.408 86.4783 257.161 85.7087 256.668 85.1052C 255.908 84.2537 254.248 83.6814 252.368 83.6814L 246.848 83.6814L 246.848 84.1072C 248.348 84.2732 248.608 84.5017 248.608 85.9802L 248.608 94.9861C 248.608 96.7107 248.401 96.9607 246.848 97.0857L 246.848 97.4802L 252.388 97.4802L 252.388 97.0857C 250.848 96.9822 250.608 96.7126 250.608 95.2146L 250.608 91.1169L 251.708 91.074L 256.468 97.4802L 259.688 97.4802L 259.688 97.0857zM 250.608 85.2302C 250.608 84.6482 250.824 84.4822 251.608 84.4822C 254.108 84.4822 255.308 85.3748 255.308 87.3318C 255.308 88.3708 254.873 89.2458 254.128 89.6404C 253.213 90.1814 252.517 90.3064 250.608 90.3474"
       style="stroke:none; fill:#333333" />
    <path
       id="path1544"
       d="M 271.748 93.9665L 271.188 93.9665C 270.188 96.2126 269.328 96.6814 266.468 96.6814L 265.928 96.6814C 264.948 96.6814 264.109 96.5896 263.968 96.4626C 263.869 96.4001 263.809 96.1716 263.809 95.8162L 263.809 90.6814L 266.908 90.6814C 268.548 90.6814 268.848 90.9509 269.108 92.6755L 269.568 92.6755L 269.568 87.8103L 269.108 87.8103C 268.968 88.6853 268.888 89.0076 268.668 89.3064C 268.409 89.6599 267.849 89.779 266.909 89.779L 263.809 89.779L 263.809 85.2087C 263.809 84.6267 263.933 84.4802 264.489 84.4802L 267.189 84.4802C 269.448 84.4802 269.889 84.7947 270.228 86.6853L 270.728 86.6853L 270.669 83.6794L 260.049 83.6794L 260.049 84.1052C 261.529 84.2302 261.809 84.5212 261.809 85.9783L 261.809 95.2126C 261.809 96.6677 261.526 96.9802 260.049 97.0837L 260.049 97.4783L 270.849 97.4783"
       style="stroke:none; fill:#333333" />
    <path
       id="path1546"
       d="M 284.508 88.0818L 284.328 83.3904L 283.908 83.3904C 283.788 83.8455 283.468 84.0759 283.068 84.0759C 282.888 84.0759 282.588 84.0232 282.289 83.9197C 281.309 83.5857 280.309 83.3884 279.369 83.3884C 277.729 83.3884 276.069 84.0447 274.829 85.2087C 273.429 86.4978 272.709 88.4314 272.709 90.7205C 272.709 92.654 273.294 94.4431 274.289 95.6287C 275.489 96.9802 277.329 97.7712 279.309 97.7712C 281.568 97.7712 283.549 96.8142 284.768 95.1287L 284.409 94.7556C 282.929 96.2322 281.609 96.8708 279.949 96.8708C 278.689 96.8708 277.569 96.4509 276.709 95.6482C 275.609 94.6306 275.009 92.7576 275.009 90.449C 275.009 86.6833 276.861 84.1872 279.749 84.1872C 280.889 84.1872 281.929 84.6462 282.729 85.5193C 283.369 86.1736 283.669 86.7478 284.049 88.0779"
       style="stroke:none; fill:#333333" />
    <path
       id="path1548"
       d="M 289.608 89.9802L 289.608 85.9783C 289.608 84.4822 289.825 84.2537 291.348 84.1072L 291.348 83.6814L 285.788 83.6814L 285.788 84.1072C 287.328 84.2537 287.608 84.4802 287.608 85.9783L 287.608 94.9841C 287.608 96.7322 287.401 96.9822 285.788 97.0857L 285.788 97.4802L 291.348 97.4802L 291.348 97.0857C 289.848 96.9607 289.608 96.6912 289.608 95.2146L 289.608 90.8806L 295.708 90.8806L 295.708 94.9841C 295.708 96.7322 295.501 96.9822 293.888 97.0857L 293.888 97.4802L 299.448 97.4802L 299.448 97.0857C 297.948 96.9607 297.708 96.6912 297.708 95.2146L 297.708 85.9783C 297.708 84.4822 297.925 84.2537 299.448 84.1072L 299.448 83.6814L 293.888 83.6814L 293.888 84.1072C 295.428 84.2537 295.708 84.4802 295.708 85.9783L 295.708 89.9802"
       style="stroke:none; fill:#333333" />
    <path
       id="path1550"
       d="M 311.748 93.9665L 311.188 93.9665C 310.188 96.2126 309.328 96.6814 306.468 96.6814L 305.928 96.6814C 304.948 96.6814 304.109 96.5896 303.968 96.4626C 303.869 96.4001 303.809 96.1716 303.809 95.8162L 303.809 90.6814L 306.908 90.6814C 308.548 90.6814 308.848 90.9509 309.108 92.6755L 309.568 92.6755L 309.568 87.8103L 309.108 87.8103C 308.968 88.6853 308.888 89.0076 308.668 89.3064C 308.409 89.6599 307.849 89.779 306.909 89.779L 303.809 89.779L 303.809 85.2087C 303.809 84.6267 303.933 84.4802 304.489 84.4802L 307.189 84.4802C 309.448 84.4802 309.889 84.7947 310.228 86.6853L 310.728 86.6853L 310.669 83.6794L 300.049 83.6794L 300.049 84.1052C 301.529 84.2302 301.809 84.5212 301.809 85.9783L 301.809 95.2126C 301.809 96.6677 301.526 96.9802 300.049 97.0837L 300.049 97.4783L 310.849 97.4783"
       style="stroke:none; fill:#333333" />
    <path
       id="path1552"
       d="M 325.288 97.0857C 324.528 97.0251 324.128 96.8162 323.548 96.1091L 319.428 90.8455C 320.768 90.5759 321.368 90.3259 322.028 89.7654C 322.668 89.2244 323.008 88.3513 323.008 87.3728C 323.008 86.4783 322.761 85.7087 322.268 85.1052C 321.508 84.2537 319.848 83.6814 317.968 83.6814L 312.448 83.6814L 312.448 84.1072C 313.948 84.2732 314.208 84.5017 314.208 85.9802L 314.208 94.9861C 314.208 96.7107 314.001 96.9607 312.448 97.0857L 312.448 97.4802L 317.988 97.4802L 317.988 97.0857C 316.448 96.9822 316.208 96.7126 316.208 95.2146L 316.208 91.1169L 317.308 91.074L 322.068 97.4802L 325.288 97.4802L 325.288 97.0857zM 316.208 85.2302C 316.208 84.6482 316.424 84.4822 317.208 84.4822C 319.708 84.4822 320.908 85.3748 320.908 87.3318C 320.908 88.3708 320.473 89.2458 319.728 89.6404C 318.813 90.1814 318.117 90.3064 316.208 90.3474"
       style="stroke:none; fill:#333333" />
    <path
       id="path1554"
       d="M 337.808 88.0818L 337.628 83.3904L 337.208 83.3904C 337.088 83.8455 336.768 84.0759 336.368 84.0759C 336.188 84.0759 335.888 84.0232 335.588 83.9197C 334.608 83.5857 333.608 83.3884 332.668 83.3884C 331.029 83.3884 329.369 84.0447 328.129 85.2087C 326.729 86.4978 326.009 88.4314 326.009 90.7205C 326.009 92.654 326.594 94.4431 327.589 95.6287C 328.789 96.9802 330.628 97.7712 332.608 97.7712C 334.868 97.7712 336.848 96.8142 338.068 95.1287L 337.708 94.7556C 336.228 96.2322 334.909 96.8708 333.248 96.8708C 331.989 96.8708 330.869 96.4509 330.008 95.6482C 328.909 94.6306 328.309 92.7576 328.309 90.449C 328.309 86.6833 330.16 84.1872 333.049 84.1872C 334.188 84.1872 335.228 84.6462 336.029 85.5193C 336.668 86.1736 336.968 86.7478 337.348 88.0779"
       style="stroke:none; fill:#333333" />
    <path
       id="path1556"
       d="M 342.908 89.9802L 342.908 85.9783C 342.908 84.4822 343.125 84.2537 344.648 84.1072L 344.648 83.6814L 339.088 83.6814L 339.088 84.1072C 340.628 84.2537 340.908 84.4802 340.908 85.9783L 340.908 94.9841C 340.908 96.7322 340.701 96.9822 339.088 97.0857L 339.088 97.4802L 344.648 97.4802L 344.648 97.0857C 343.148 96.9607 342.908 96.6912 342.908 95.2146L 342.908 90.8806L 349.008 90.8806L 349.008 94.9841C 349.008 96.7322 348.801 96.9822 347.188 97.0857L 347.188 97.4802L 352.748 97.4802L 352.748 97.0857C 351.248 96.9607 351.008 96.6912 351.008 95.2146L 351.008 85.9783C 351.008 84.4822 351.225 84.2537 352.748 84.1072L 352.748 83.6814L 347.188 83.6814L 347.188 84.1072C 348.728 84.2537 349.008 84.4802 349.008 85.9783L 349.008 89.9802"
       style="stroke:none; fill:#333333" />
    <path
       id="path1558"
       d="M 365.148 93.9665L 364.588 93.9665C 363.588 96.2126 362.728 96.6814 359.868 96.6814L 359.328 96.6814C 358.348 96.6814 357.508 96.5896 357.368 96.4626C 357.268 96.4001 357.208 96.1716 357.208 95.8162L 357.208 90.6814L 360.308 90.6814C 361.948 90.6814 362.248 90.9509 362.508 92.6755L 362.968 92.6755L 362.968 87.8103L 362.508 87.8103C 362.368 88.6853 362.288 89.0076 362.068 89.3064C 361.809 89.6599 361.248 89.779 360.309 89.779L 357.209 89.779L 357.209 85.2087C 357.209 84.6267 357.332 84.4802 357.889 84.4802L 360.589 84.4802C 362.848 84.4802 363.289 84.7947 363.628 86.6853L 364.128 86.6853L 364.069 83.6794L 353.449 83.6794L 353.449 84.1052C 354.929 84.2302 355.208 84.5212 355.208 85.9783L 355.208 95.2126C 355.208 96.6677 354.925 96.9802 353.449 97.0837L 353.449 97.4783L 364.248 97.4783"
       style="stroke:none; fill:#333333" />
    <path
       id="path1560"
       d="M 192.148 108.189L 191.728 108.189C 191.648 108.689 191.428 108.896 191.088 108.896C 190.888 108.896 190.548 108.824 190.208 108.678C 189.468 108.387 188.728 108.189 188.088 108.189C 187.228 108.189 186.348 108.554 185.688 109.178C 184.988 109.822 184.609 110.695 184.609 111.777C 184.609 113.441 185.495 114.605 187.748 115.832C 189.188 116.623 190.228 117.476 190.728 118.267C 190.908 118.537 191.008 118.972 191.008 119.472C 191.008 120.867 190.008 121.75 188.548 121.75C 186.768 121.75 185.508 120.629 184.508 118.14L 184.049 118.14L 184.648 122.551L 185.148 122.551C 185.166 122.156 185.38 121.865 185.648 121.865C 185.868 121.865 186.208 121.947 186.588 122.094C 187.348 122.404 188.148 122.57 188.948 122.57C 191.248 122.57 193.008 120.928 193.008 118.785C 193.008 117.08 191.914 115.726 189.288 114.252C 187.188 113.045 186.408 112.129 186.408 111.006C 186.408 109.863 187.224 109.088 188.428 109.088C 189.328 109.088 190.168 109.476 190.868 110.215C 191.488 110.888 191.768 111.435 192.088 112.679L 192.588 112.679"
       style="stroke:none; fill:#333333" />
    <path
       id="path1562"
       d="M 206.708 112.881L 206.528 108.189L 206.108 108.189C 205.988 108.646 205.668 108.877 205.268 108.877C 205.088 108.877 204.788 108.824 204.488 108.719C 203.508 108.387 202.508 108.189 201.569 108.189C 199.929 108.189 198.269 108.846 197.029 110.008C 195.629 111.299 194.909 113.232 194.909 115.519C 194.909 117.453 195.494 119.242 196.489 120.429C 197.689 121.781 199.529 122.57 201.508 122.57C 203.768 122.57 205.748 121.613 206.968 119.929L 206.609 119.554C 205.129 121.031 203.809 121.672 202.149 121.672C 200.889 121.672 199.769 121.25 198.909 120.449C 197.809 119.429 197.209 117.558 197.209 115.25C 197.209 111.484 199.06 108.988 201.949 108.988C 203.089 108.988 204.129 109.445 204.929 110.318C 205.569 110.974 205.869 111.549 206.248 112.879"
       style="stroke:none; fill:#333333" />
    <path
       id="path1564"
       d="M 209.908 120.013C 209.908 121.574 209.648 121.824 207.968 121.887L 207.968 122.281L 213.908 122.281L 213.908 121.881C 212.268 121.818 211.908 121.527 211.908 120.013L 211.908 110.779C 211.908 109.262 212.194 108.99 213.908 108.908L 213.908 108.482L 207.968 108.482L 207.968 108.881C 209.668 108.986 209.908 109.219 209.908 110.779"
       style="stroke:none; fill:#333333" />
    <path
       id="path1566"
       d="M 226.248 118.765L 225.688 118.765C 224.688 121.012 223.828 121.48 220.968 121.48L 220.428 121.48C 219.448 121.48 218.609 121.39 218.468 121.262C 218.369 121.201 218.309 120.971 218.309 120.617L 218.309 115.48L 221.408 115.48C 223.048 115.48 223.348 115.752 223.608 117.476L 224.068 117.476L 224.068 112.609L 223.608 112.609C 223.468 113.486 223.388 113.806 223.168 114.105C 222.909 114.459 222.349 114.58 221.409 114.58L 218.309 114.58L 218.309 110.008C 218.309 109.426 218.433 109.281 218.989 109.281L 221.689 109.281C 223.948 109.281 224.389 109.596 224.728 111.484L 225.228 111.484L 225.169 108.48L 214.549 108.48L 214.549 108.906C 216.029 109.031 216.309 109.322 216.309 110.777L 216.309 120.013C 216.309 121.469 216.026 121.781 214.549 121.885L 214.549 122.279L 225.349 122.279"
       style="stroke:none; fill:#333333" />
    <path
       id="path1568"
       d="M 238.808 122.51L 238.808 111.568C 238.808 110.322 238.987 109.551 239.328 109.281C 239.607 109.074 239.887 108.99 240.647 108.908L 240.647 108.482L 235.947 108.482L 235.947 108.908C 236.707 108.969 236.987 109.053 237.287 109.24C 237.687 109.531 237.907 110.279 237.907 111.57L 237.907 118.58L 230.167 108.482L 226.747 108.482L 226.747 108.883C 227.616 108.883 227.899 109.053 228.707 110.053L 228.707 119.224C 228.707 121.367 228.424 121.762 226.747 121.887L 226.747 122.281L 231.447 122.281L 231.447 121.881C 229.907 121.799 229.607 121.32 229.607 119.222L 229.607 111.07L 238.407 122.51"
       style="stroke:none; fill:#333333" />
    <path
       id="path1570"
       d="M 246.108 109.381L 246.108 119.785C 246.108 121.553 245.886 121.781 244.208 121.887L 244.208 122.281L 250.048 122.281L 250.048 121.881C 248.408 121.799 248.108 121.527 248.108 120.013L 248.108 109.381L 249.208 109.381C 251.487 109.381 251.928 109.756 252.388 112.047L 252.868 112.047L 252.748 108.48L 241.468 108.48L 241.348 112.047L 241.828 112.047C 242.308 109.779 242.768 109.381 245.008 109.381"
       style="stroke:none; fill:#333333" />
    <path
       id="path1572"
       d="M 255.508 120.013C 255.508 121.574 255.248 121.824 253.568 121.887L 253.568 122.281L 259.508 122.281L 259.508 121.881C 257.868 121.818 257.508 121.527 257.508 120.013L 257.508 110.779C 257.508 109.262 257.794 108.99 259.508 108.908L 259.508 108.482L 253.568 108.482L 253.568 108.881C 255.268 108.986 255.508 109.219 255.508 110.779"
       style="stroke:none; fill:#333333" />
    <path
       id="path1574"
       d="M 269.388 117.476L 269.388 112.609L 268.928 112.609C 268.688 114.308 268.328 114.58 266.728 114.58L 263.808 114.58L 263.808 110.008C 263.808 109.426 263.911 109.281 264.468 109.281L 267.188 109.281C 269.448 109.281 269.888 109.596 270.228 111.486L 270.728 111.486L 270.668 108.48L 260.048 108.48L 260.048 108.906C 261.528 109.031 261.808 109.322 261.808 110.777L 261.808 119.783C 261.808 121.51 261.585 121.781 260.048 121.885L 260.048 122.279L 265.648 122.279L 265.648 121.879C 264.108 121.797 263.808 121.508 263.808 120.013L 263.808 115.48L 266.728 115.48C 268.348 115.48 268.688 115.791 268.928 117.474"
       style="stroke:none; fill:#333333" />
    <path
       id="path1576"
       d="M 273.308 120.013C 273.308 121.574 273.048 121.824 271.368 121.887L 271.368 122.281L 277.308 122.281L 277.308 121.881C 275.668 121.818 275.308 121.527 275.308 120.013L 275.308 110.779C 275.308 109.262 275.594 108.99 277.308 108.908L 277.308 108.482L 271.368 108.482L 271.368 108.881C 273.068 108.986 273.308 109.219 273.308 110.779"
       style="stroke:none; fill:#333333" />
    <path
       id="path1578"
       d="M 291.628 125.582C 289.348 125.519 287.748 124.605 286.128 122.428C 287.488 122.158 288.208 121.803 289.128 120.971C 290.608 119.599 291.408 117.705 291.408 115.398C 291.408 111.217 288.671 108.191 284.828 108.191C 281.008 108.191 278.308 111.199 278.308 115.439C 278.308 117.476 278.901 119.183 280.068 120.513C 280.848 121.388 281.488 121.804 282.908 122.303L 283.848 123.447C 285.207 125.09 287.627 125.984 290.808 125.984C 291.107 125.984 291.288 125.984 291.508 125.982L 291.627 125.982L 291.628 125.582zM 284.888 108.99C 285.748 108.99 286.668 109.377 287.368 110.01C 288.448 111.008 289.108 113.004 289.108 115.355C 289.108 117.414 288.52 119.535 287.708 120.492C 286.968 121.346 285.928 121.824 284.828 121.824C 283.868 121.824 282.988 121.471 282.268 120.804C 281.208 119.828 280.608 117.748 280.608 115.314C 280.608 113.316 281.171 111.279 281.968 110.322C 282.788 109.408 283.728 108.992 284.888 108.992"
       style="stroke:none; fill:#333333" />
    <path
       id="path1580"
       d="M 304.308 111.568C 304.308 109.447 304.551 109.115 306.208 108.908L 306.208 108.482L 301.568 108.482L 301.568 108.908C 303.128 109.033 303.408 109.488 303.408 111.568L 303.408 117.185C 303.408 118.599 303.28 119.39 302.988 120.013C 302.448 121.012 301.168 121.672 299.668 121.672C 298.248 121.672 297.268 121.168 296.728 120.179C 296.368 119.513 296.208 118.746 296.208 117.433L 296.208 110.779C 296.208 109.281 296.43 109.053 298.048 108.906L 298.048 108.48L 292.388 108.48L 292.388 108.906C 293.968 109.031 294.208 109.26 294.208 110.779L 294.208 117.267C 294.208 120.867 295.822 122.572 299.208 122.572C 301.388 122.572 302.888 121.844 303.668 120.429C 304.148 119.556 304.308 118.601 304.308 116.998"
       style="stroke:none; fill:#333333" />
    <path
       id="path1582"
       d="M 318.448 118.765L 317.888 118.765C 316.888 121.012 316.028 121.48 313.168 121.48L 312.628 121.48C 311.648 121.48 310.809 121.39 310.668 121.262C 310.569 121.201 310.508 120.971 310.508 120.617L 310.508 115.48L 313.608 115.48C 315.248 115.48 315.548 115.752 315.808 117.476L 316.268 117.476L 316.268 112.609L 315.808 112.609C 315.668 113.486 315.588 113.806 315.368 114.105C 315.109 114.459 314.549 114.58 313.609 114.58L 310.509 114.58L 310.509 110.008C 310.509 109.426 310.633 109.281 311.189 109.281L 313.889 109.281C 316.148 109.281 316.589 109.596 316.928 111.484L 317.428 111.484L 317.369 108.48L 306.749 108.48L 306.749 108.906C 308.229 109.031 308.508 109.322 308.508 110.777L 308.508 120.013C 308.508 121.469 308.226 121.781 306.749 121.885L 306.749 122.279L 317.549 122.279"
       style="stroke:none; fill:#333333" />
  </g>
<g id="logo_latex" transform="matrix(45,0,0,45,40,40)" fill="black">
	<path transform="translate(0,0.17)" d="M5.46,4.23 C5.46,4.23 5.21,4.23 5.21,4.23 C5.11,5.25 4.97,6.49 3.21,6.49 C3.21,6.49 2.4,6.49 2.4,6.49 C1.93,6.49 1.91,6.42 1.91,6.09 C1.91,6.09 1.91,0.78 1.91,0.78 C1.91,0.44 1.91,0.3 2.85,0.3 C2.85,0.3 3.18,0.3 3.18,0.3 C3.18,0.3 3.18,0 3.18,0 C2.82,0.03 1.92,0.03 1.51,0.03 C1.12,0.03 0.34,0.03 0,0 C0,0 0,0.3 0,0.3 C0,0.3 0.23,0.3 0.23,0.3 C1,0.3 1.02,0.41 1.02,0.77 C1.02,0.77 1.02,6.02 1.02,6.02 C1.02,6.38 1,6.49 0.23,6.49 C0.23,6.49 0,6.49 0,6.49 C0,6.49 0,6.8 0,6.8 C0,6.8 5.19,6.8 5.19,6.8 C5.19,6.8 5.46,4.23 5.46,4.23 z"/>
	<path transform="translate(2.48)" d="M2.81,0.16 C2.77,0.04 2.75,0 2.62,0 C2.49,0 2.46,0.04 2.42,0.16 C2.42,0.16 0.81,4.24 0.81,4.24 C0.74,4.41 0.62,4.72 0,4.72 C0,4.72 0,4.97 0,4.97 C0,4.97 1.55,4.97 1.55,4.97 C1.55,4.97 1.55,4.72 1.55,4.72 C1.24,4.72 1.05,4.58 1.05,4.38 C1.05,4.33 1.06,4.31 1.08,4.24 C1.08,4.24 1.42,3.38 1.42,3.38 C1.42,3.38 3.4,3.38 3.4,3.38 C3.4,3.38 3.8,4.4 3.8,4.4 C3.82,4.44 3.84,4.49 3.84,4.52 C3.84,4.72 3.46,4.72 3.27,4.72 C3.27,4.72 3.27,4.97 3.27,4.97 C3.27,4.97 5.24,4.97 5.24,4.97 C5.24,4.97 5.24,4.72 5.24,4.72 C5.24,4.72 5.1,4.72 5.1,4.72 C4.63,4.72 4.58,4.65 4.51,4.45 C4.51,4.45 2.81,0.16 2.81,0.16 z M2.41,0.87 C2.41,0.87 3.3,3.13 3.3,3.13 C3.3,3.13 1.52,3.13 1.52,3.13 C1.52,3.13 2.41,0.87 2.41,0.87 z"/>
	<path transform="translate(7.03,0.23)" d="M6.27,0 C6.27,0 0.18,0 0.18,0 C0.18,0 0,2.24 0,2.24 C0,2.24 0.24,2.24 0.24,2.24 C0.38,0.63 0.53,0.3 2.04,0.3 C2.22,0.3 2.48,0.3 2.58,0.32 C2.79,0.36 2.79,0.47 2.79,0.7 C2.79,0.7 2.79,5.95 2.79,5.95 C2.79,6.29 2.79,6.43 1.74,6.43 C1.74,6.43 1.34,6.43 1.34,6.43 C1.34,6.43 1.34,6.74 1.34,6.74 C1.75,6.71 2.76,6.71 3.22,6.71 C3.68,6.71 4.71,6.71 5.12,6.74 C5.12,6.74 5.12,6.43 5.12,6.43 C5.12,6.43 4.72,6.43 4.72,6.43 C3.67,6.43 3.67,6.29 3.67,5.95 C3.67,5.95 3.67,0.7 3.67,0.7 C3.67,0.5 3.67,0.36 3.85,0.32 C3.96,0.3 4.23,0.3 4.42,0.3 C5.92,0.3 6.07,0.63 6.21,2.24 C6.21,2.24 6.46,2.24 6.46,2.24 C6.46,2.24 6.27,0 6.27,0 z"/>
	<path transform="translate(12.5,2.45)" d="M6.16,4.2 C6.16,4.2 5.91,4.2 5.91,4.2 C5.66,5.73 5.43,6.46 3.72,6.46 C3.72,6.46 2.4,6.46 2.4,6.46 C1.93,6.46 1.91,6.39 1.91,6.06 C1.91,6.06 1.91,3.4 1.91,3.4 C1.91,3.4 2.8,3.4 2.8,3.4 C3.77,3.4 3.88,3.72 3.88,4.57 C3.88,4.57 4.13,4.57 4.13,4.57 C4.13,4.57 4.13,1.93 4.13,1.93 C4.13,1.93 3.88,1.93 3.88,1.93 C3.88,2.78 3.77,3.09 2.8,3.09 C2.8,3.09 1.91,3.09 1.91,3.09 C1.91,3.09 1.91,0.7 1.91,0.7 C1.91,0.37 1.93,0.3 2.4,0.3 C2.4,0.3 3.68,0.3 3.68,0.3 C5.21,0.3 5.47,0.85 5.63,2.24 C5.63,2.24 5.88,2.24 5.88,2.24 C5.88,2.24 5.6,0 5.6,0 C5.6,0 0,0 0,0 C0,0 0,0.3 0,0.3 C0,0.3 0.23,0.3 0.23,0.3 C1,0.3 1.02,0.41 1.02,0.77 C1.02,0.77 1.02,5.99 1.02,5.99 C1.02,6.35 1,6.46 0.23,6.46 C0.23,6.46 0,6.46 0,6.46 C0,6.46 0,6.77 0,6.77 C0,6.77 5.74,6.77 5.74,6.77 C5.74,6.77 6.16,4.2 6.16,4.2 z"/>
	<path transform="translate(17.91,0.17)" d="M3.76,2.95 C3.76,2.95 5.13,0.95 5.13,0.95 C5.34,0.63 5.68,0.31 6.57,0.3 C6.57,0.3 6.57,0 6.57,0 C6.57,0 4.19,0 4.19,0 C4.19,0 4.19,0.3 4.19,0.3 C4.59,0.31 4.81,0.53 4.81,0.76 C4.81,0.86 4.79,0.88 4.72,0.99 C4.72,0.99 3.58,2.67 3.58,2.67 C3.58,2.67 2.3,0.75 2.3,0.75 C2.28,0.72 2.23,0.64 2.23,0.6 C2.23,0.48 2.45,0.31 2.87,0.3 C2.87,0.3 2.87,0 2.87,0 C2.53,0.03 1.8,0.03 1.42,0.03 C1.11,0.03 0.49,0.02 0.12,0 C0.12,0 0.12,0.3 0.12,0.3 C0.12,0.3 0.31,0.3 0.31,0.3 C0.86,0.3 1.05,0.37 1.24,0.65 C1.24,0.65 3.07,3.42 3.07,3.42 C3.07,3.42 1.44,5.83 1.44,5.83 C1.3,6.03 1,6.49 0,6.49 C0,6.49 0,6.8 0,6.8 C0,6.8 2.38,6.8 2.38,6.8 C2.38,6.8 2.38,6.49 2.38,6.49 C1.92,6.48 1.75,6.21 1.75,6.03 C1.75,5.94 1.78,5.9 1.85,5.79 C1.85,5.79 3.26,3.7 3.26,3.7 C3.26,3.7 4.84,6.08 4.84,6.08 C4.86,6.12 4.89,6.16 4.89,6.19 C4.89,6.31 4.67,6.48 4.24,6.49 C4.24,6.49 4.24,6.8 4.24,6.8 C4.59,6.77 5.32,6.77 5.69,6.77 C6.11,6.77 6.57,6.78 6.99,6.8 C6.99,6.8 6.99,6.49 6.99,6.49 C6.99,6.49 6.8,6.49 6.8,6.49 C6.28,6.49 6.07,6.44 5.86,6.13 C5.86,6.13 3.76,2.95 3.76,2.95 z"/>
</g>
<g id="ex_text" >
     <text x="2" y="2">texte LaTeX $\frac{\delta}{\epsilon}$</text>
</g>
<g id="ex_rect" >
     <rect x="3" y="10" width="100" height="100" />
     </g>
</svg>
